<svg viewBox="0 0 79 20" fill="none" xmlns="http://www.w3.org/2000/svg" class="h-5 2xl:h-8 text-white"><path d="M34.2012 16.4364C34.0221 16.4364 33.9326 16.3469 33.9326 16.1678V10.5083C33.9326 10.0991 33.8494 9.79851 33.6832 9.60666C33.5297 9.40203 33.2739 9.29971 32.9158 9.29971C32.5449 9.29971 32.1804 9.41482 31.8223 9.64503C31.4769 9.86246 31.138 10.1374 30.8055 10.47L30.5944 8.57069C30.8886 8.25095 31.2147 7.95039 31.5729 7.66901C31.931 7.37485 32.3275 7.13824 32.7623 6.95918C33.2099 6.76733 33.7087 6.67141 34.2587 6.67141C35.1668 6.67141 35.851 6.92081 36.3115 7.41961C36.7719 7.91841 37.0021 8.71138 37.0021 9.79851V16.1678C37.0021 16.3469 36.9126 16.4364 36.7335 16.4364H34.2012ZM28.369 16.4364C28.19 16.4364 28.1004 16.3469 28.1004 16.1678V9.37645C28.1004 8.96717 28.0876 8.57709 28.0621 8.20618C28.0493 7.83528 28.0301 7.49635 28.0045 7.1894C27.9789 6.99755 28.0621 6.90163 28.2539 6.90163H30.441C30.5177 6.90163 30.5817 6.91442 30.6328 6.94C30.684 6.96557 30.7159 7.02313 30.7287 7.11266C30.7543 7.24056 30.7799 7.39403 30.8055 7.57309C30.8311 7.73936 30.8566 7.91841 30.8822 8.11026C30.9078 8.28932 30.9206 8.46198 30.9206 8.62824L31.17 9.76014V16.1678C31.17 16.3469 31.0805 16.4364 30.9014 16.4364H28.369Z" fill="currentColor"></path><path d="M39.1416 16.4364C38.9626 16.4364 38.8731 16.3469 38.8731 16.1678V7.15103C38.8731 6.98476 38.9626 6.90163 39.1416 6.90163H41.674C41.8531 6.90163 41.9426 6.98476 41.9426 7.15103V16.1678C41.9426 16.3469 41.8531 16.4364 41.674 16.4364H39.1416Z" fill="currentColor"></path><path d="M44.0877 16.4364C43.9086 16.4364 43.8191 16.3469 43.8191 16.1678V3.60187C43.8191 3.42281 43.9086 3.33328 44.0877 3.33328H46.6201C46.7991 3.33328 46.8886 3.42281 46.8886 3.60187V16.1678C46.8886 16.3469 46.7991 16.4364 46.6201 16.4364H44.0877Z" fill="currentColor"></path><path d="M53.1009 16.6666C51.5277 16.6666 50.3767 16.3405 49.6476 15.6882C48.9186 15.0359 48.5541 14.0703 48.5541 12.7913V10.7577C48.5541 9.41481 48.9122 8.39803 49.6285 7.70738C50.3575 7.01673 51.4958 6.67141 53.0433 6.67141C54.5397 6.67141 55.6588 7.00394 56.4006 7.66901C57.1552 8.32129 57.5325 9.29971 57.5325 10.6043V12.1007C57.5325 12.2797 57.443 12.3693 57.2639 12.3693H51.5661V12.9256C51.5661 13.4116 51.6812 13.7825 51.9114 14.0383C52.1416 14.2813 52.5189 14.4028 53.0433 14.4028C53.4526 14.4028 53.7723 14.3389 54.0026 14.211C54.2456 14.0831 54.3671 13.8848 54.3671 13.6163C54.3671 13.4628 54.4566 13.386 54.6356 13.386H57.0721C57.2384 13.386 57.3279 13.4692 57.3407 13.6354C57.3535 14.6714 57.0145 15.4388 56.3239 15.9376C55.6332 16.4236 54.5589 16.6666 53.1009 16.6666ZM51.5661 10.681H54.5397V10.6043C54.5397 10.0159 54.4246 9.59387 54.1944 9.33808C53.9642 9.08228 53.5933 8.95438 53.0817 8.95438C52.5445 8.95438 52.1544 9.08228 51.9114 9.33808C51.6812 9.59387 51.5661 10.0159 51.5661 10.6043V10.681Z" fill="currentColor"></path><path d="M61.7516 16.6666C60.8564 16.6666 60.1785 16.4108 59.7181 15.8992C59.2704 15.3748 59.0466 14.5627 59.0466 13.4628V10.5659C59.0466 9.17181 59.3408 8.17421 59.9291 7.57309C60.5174 6.97197 61.336 6.67141 62.3847 6.67141C62.794 6.67141 63.2544 6.72896 63.766 6.84407C64.2904 6.94639 64.7317 7.09987 65.0898 7.3045L65.1473 9.62585C64.8532 9.45958 64.5462 9.33808 64.2265 9.26134C63.9195 9.1846 63.6381 9.14623 63.3823 9.14623C62.9475 9.14623 62.6277 9.29331 62.4231 9.58748C62.2185 9.86885 62.1162 10.2781 62.1162 10.8153V12.7913C62.1162 13.2006 62.1929 13.5139 62.3464 13.7314C62.4999 13.936 62.7556 14.0383 63.1138 14.0383C63.3696 14.0383 63.6126 13.9872 63.8428 13.8848C64.0858 13.7825 64.3224 13.6418 64.5526 13.4628C64.7828 13.2837 65.0066 13.0791 65.2241 12.8489L65.4351 14.729C65.1281 15.0487 64.7956 15.3557 64.4375 15.6498C64.0922 15.944 63.7021 16.187 63.2672 16.3788C62.8324 16.5707 62.3272 16.6666 61.7516 16.6666ZM65.5502 16.4364C65.4735 16.4364 65.4159 16.4236 65.3775 16.398C65.3392 16.3597 65.3072 16.2957 65.2816 16.2062C65.2305 16.0015 65.1857 15.7713 65.1473 15.5155C65.1217 15.2469 65.1026 14.9912 65.0898 14.7481L64.8212 13.5587V3.60187C64.8212 3.42281 64.9107 3.33328 65.0898 3.33328H67.6222C67.8012 3.33328 67.8907 3.42281 67.8907 3.60187V13.9999C67.8907 14.2557 67.8907 14.5115 67.8907 14.7673C67.9035 15.0103 67.9163 15.2469 67.9291 15.4772C67.9547 15.7074 67.9739 15.9248 67.9867 16.1294C68.025 16.3341 67.9419 16.4364 67.7373 16.4364H65.5502Z" fill="currentColor"></path><path d="M74.1028 16.6666C72.5297 16.6666 71.3786 16.3405 70.6496 15.6882C69.9206 15.0359 69.5561 14.0703 69.5561 12.7913V10.7577C69.5561 9.41481 69.9142 8.39803 70.6304 7.70738C71.3594 7.01673 72.4977 6.67141 74.0453 6.67141C75.5417 6.67141 76.6608 7.00394 77.4026 7.66901C78.1572 8.32129 78.5345 9.29971 78.5345 10.6043V12.1007C78.5345 12.2797 78.4449 12.3693 78.2659 12.3693H72.568V12.9256C72.568 13.4116 72.6832 13.7825 72.9134 14.0383C73.1436 14.2813 73.5209 14.4028 74.0453 14.4028C74.4545 14.4028 74.7743 14.3389 75.0045 14.211C75.2475 14.0831 75.369 13.8848 75.369 13.6163C75.369 13.4628 75.4585 13.386 75.6376 13.386H78.074C78.2403 13.386 78.3298 13.4692 78.3426 13.6354C78.3554 14.6714 78.0165 15.4388 77.3258 15.9376C76.6352 16.4236 75.5608 16.6666 74.1028 16.6666ZM72.568 10.681H75.5417V10.6043C75.5417 10.0159 75.4266 9.59387 75.1963 9.33808C74.9661 9.08228 74.5952 8.95438 74.0836 8.95438C73.5465 8.95438 73.1564 9.08228 72.9134 9.33808C72.6832 9.59387 72.568 10.0159 72.568 10.6043V10.681Z" fill="currentColor"></path><path d="M39.1366 3.72584C39.014 3.60391 38.9527 3.54295 38.9485 3.49058C38.9448 3.44515 38.9631 3.40071 38.9978 3.37108C39.0377 3.33692 39.1241 3.33692 39.297 3.33692H41.718C41.7977 3.33692 41.8375 3.33692 41.8679 3.35242C41.8947 3.36606 41.9165 3.38782 41.9301 3.41458C41.9456 3.445 41.9456 3.48483 41.9456 3.56448V5.98546C41.9456 6.15838 41.9456 6.24483 41.9114 6.28475C41.8818 6.31939 41.8374 6.33773 41.7919 6.33406C41.7396 6.32984 41.6786 6.26853 41.5567 6.14593L40.3515 4.93401L39.1366 3.72584Z" fill="currentColor"></path><path d="M2.44406 2.43067C1.67779 1.66865 1.29466 1.28764 1.26826 0.96035C1.24536 0.676387 1.35995 0.398651 1.57642 0.213453C1.82592 0 2.36626 0 3.44692 0H18.5776C19.0754 0 19.3243 0 19.5145 0.0968829C19.6817 0.182104 19.8177 0.318086 19.9029 0.485341C19.9998 0.675484 19.9998 0.924396 19.9998 1.42222V16.5529C19.9998 17.6335 19.9998 18.1739 19.7864 18.4234C19.6012 18.6399 19.3234 18.7544 19.0395 18.7315C18.7122 18.7051 18.3312 18.322 17.5691 17.5557L10.0369 9.98146L2.44406 2.43067Z" fill="currentColor"></path><path fill-rule="evenodd" clip-rule="evenodd" d="M0.269149 2.14605C0.117001 2.21128 0 2.35872 0 2.55446V19.5555C0 19.801 0.198984 20 0.444444 20H1.48148V5.05792L16.2125 19.789C16.2894 19.8659 16.3278 19.9043 16.3727 19.9318C16.4125 19.9562 16.4558 19.9741 16.5012 19.985C16.5523 19.9973 16.6067 19.9973 16.7154 19.9973L16.7994 19.9973H16.7994C17.3379 19.9972 17.6071 19.9972 17.7317 19.8907C17.8399 19.7983 17.8973 19.6597 17.8861 19.5179C17.8733 19.3544 17.6829 19.1641 17.3022 18.7833L1.21412 2.69529C1.16541 2.64658 1.11981 2.60098 1.07699 2.55848L0.758713 2.2402C0.624349 2.10583 0.444213 2.08162 0.293182 2.13654C0.28508 2.13948 0.277065 2.14265 0.269149 2.14605Z" fill="currentColor"></path></svg>
