<?xml version="1.0" encoding="utf-8"?>
<!-- Generator: Adobe Illustrator 25.4.1, SVG Export Plug-In . SVG Version: 6.00 Build 0)  -->
<svg version="1.1" id="Layer_1" xmlns="http://www.w3.org/2000/svg" xmlns:xlink="http://www.w3.org/1999/xlink" x="0px" y="0px"
	 viewBox="0 0 2038 300.1" style="enable-background:new 0 0 2038 300.1;" xml:space="preserve">
<style type="text/css">
	.st0{fill:#E6E7E8;stroke:#231F20;stroke-width:0.6623;stroke-linecap:round;stroke-miterlimit:10;}
	.st1{fill:#FFFFFF;}
	.st2{fill:#131A25;}
	.st3{fill:none;}
	.st4{fill:#E06F00;}
	.st5{fill:#2463C5;}
	.st6{fill:#293860;}
	.st7{fill:none;stroke:#2463C5;stroke-miterlimit:10;}
	.st8{fill:none;stroke:#2463C5;stroke-width:1.2812;stroke-miterlimit:10;}
	.st9{fill:#383838;}
	.st10{fill:none;stroke:#2463C5;stroke-width:0.2701;stroke-miterlimit:10;}
	.st11{fill:#32386D;}
	.st12{fill:#EBEEF2;}
	.st13{fill:#0E499E;}
	.st14{clip-path:url(#SVGID_00000035532580612581255110000015537922819845873035_);}
	.st15{clip-path:url(#SVGID_00000098211137121134772620000002812687758036162210_);}
	.st16{fill:#E6E7E8;stroke:#231F20;stroke-linecap:round;stroke-miterlimit:10;}
	.st17{fill:#E6E7E8;stroke:#231F20;stroke-width:0.6313;stroke-linecap:round;stroke-miterlimit:10;}
	.st18{fill:none;stroke:#FFFFFF;stroke-miterlimit:10;}
	.st19{fill:#333138;}
	.st20{fill:#FFFBFE;}
	.st21{opacity:0.52;}
</style>
<g>
	<g>
		<g>
			<g>
				<path class="st5" d="M281.2,5.1h70.8v255.3h-70.8V5.1z"/>
			</g>
			<g>
				<path class="st5" d="M379.3,222.5l39.4-47c25.5,20.1,53.2,30.6,82.8,30.6c19.3,0,29.5-6.6,29.5-17.5v-0.7
					c0-10.9-8.4-16.4-43.4-24.8c-54.3-12.4-96.3-27.7-96.3-79.9v-0.7c0-47.4,37.6-81.7,98.8-81.7c43.4,0,77.3,11.7,105,33.9
					l-35.4,50c-23.3-16.8-48.9-25.2-71.5-25.2c-17.1,0-25.5,6.9-25.5,16.4v0.7c0,11.7,8.8,16.8,44.5,24.8
					c58.4,12.8,94.8,31.7,94.8,79.5v0.7c0,52.2-41.2,83.2-103.2,83.2C453.7,264.8,411,250.6,379.3,222.5z"/>
			</g>
			<g>
				<path class="st5" d="M628,133.5v-0.7C628,58.4,684.9,0,762.2,0c52.2,0,85.7,21.9,108.3,52.9l-53.2,41.2
					c-14.6-17.9-31.4-29.9-55.8-29.9c-35.7,0-60.9,30.6-60.9,67.8v0.7c0,38.3,25.2,68.2,60.9,68.2c26.6,0,42.3-12.4,57.6-31
					l53.3,37.9c-24.1,33.2-56.5,57.6-112.7,57.6C686.7,265.5,628,209.7,628,133.5z"/>
			</g>
			<g>
				<path class="st5" d="M887.3,133.5v-0.7C887.3,59.5,946.4,0,1025.2,0c78.8,0,137.1,58.7,137.1,132v0.7
					c0,73.3-59.1,132.8-137.9,132.8S887.3,206.8,887.3,133.5z M1089.8,133.5v-0.7c0-37.2-26.3-68.9-65.3-68.9
					c-39,0-64.9,31.4-64.9,68.2v0.7c0,36.8,26.6,68.9,65.7,68.9C1063.9,201.7,1089.8,170.3,1089.8,133.5z"/>
			</g>
			<g>
				<path class="st5" d="M1162.3,5.1h78.8l58,161.6l58.4-161.6h77.3l-103.6,257.1h-65.7L1162.3,5.1z"/>
			</g>
			<g>
				<path class="st5" d="M1459.6,5.1h205.3v59.8h-135.3v39h122.5v55.8h-122.5v40.5h137.1v60.2h-207.2V5.1z"/>
			</g>
			<g>
				<path class="st5" d="M1703.2,5.1h120.7c39,0,66,10.2,83.2,27.4c15,15,22.6,34.3,22.6,59.4v0.7c0,39.4-20.8,65.3-52.5,78.8
					l60.9,89h-81.3l-51.4-77.3H1774v77.3h-70.8V5.1z M1821,127.7c23.7,0,37.9-11.7,37.9-30.3v-0.7c0-20.4-15-30.6-38.3-30.6H1774
					v61.6H1821z"/>
			</g>
			<g>
				<path class="st5" d="M1967.2,5.1h70.8v255.3h-70.8V5.1z"/>
			</g>
			<g>
				<path class="st5" d="M887.3,133.5v-0.7C887.3,59.5,946.4,0,1025.2,0c78.8,0,137.1,58.7,137.1,132v0.7
					c0,73.3-59.1,132.8-137.9,132.8S887.3,206.8,887.3,133.5z M1089.8,133.5v-0.7c0-37.2-26.3-68.9-65.3-68.9
					c-39,0-64.9,31.4-64.9,68.2v0.7c0,36.8,26.6,68.9,65.7,68.9C1063.9,201.7,1089.8,170.3,1089.8,133.5z"/>
			</g>
		</g>
	</g>
	<g>
		<path class="st5" d="M242.6,131.5v-0.2c0-0.8,0-1.7,0-2.5c0-0.2,0-0.4,0-0.5c0-0.6,0-1.2,0-1.9c-0.8-27.7-8.4-51.3-22.4-68.8
			C196.4,25.1,154.8,5.1,98.9,5.1H0v255.4h54.2v39.7l84.6-25.2c67.4-20,103-77.3,103.8-140.7c0-0.6,0-1.3,0-1.9c0-0.1,0-0.1,0-0.2
			L242.6,131.5C242.6,131.5,242.6,131.5,242.6,131.5z M139.9,26l-85.7,3.8v218.8H11.9V17h86.9c21.6,0,41.3,3.2,58.6,9.3
			C151.9,25.8,146,25.7,139.9,26z"/>
	</g>
</g>
</svg>
